<svg xmlns="http://www.w3.org/2000/svg" width="76mm" height="106mm" viewBox="0 0 76 106">
  <defs><style>.paper{fill:#fff}.trim{fill:none;stroke:#9D9A95;stroke-width:.2;stroke-dasharray:1.2 1.2}.safe{fill:none;stroke:#E8E4DC;stroke-width:.25}.line{fill:none;stroke:#1E1E1E;stroke-width:.35;stroke-linecap:round;stroke-linejoin:round}.soft{fill:none;stroke:#9D9A95;stroke-width:.24;stroke-linecap:round}.wash{fill:#E8E4DC;opacity:.55}.black{fill:#1E1E1E}.txt{font-family:Georgia,'Times New Roman',serif;font-size:3px;fill:#1E1E1E}.num{font-family:Arial,sans-serif;font-size:2px;fill:#9D9A95}</style></defs>
  <rect class="paper" width="76" height="106"/><rect class="trim" x="3" y="3" width="70" height="100"/><rect class="safe" x="8" y="8" width="60" height="90"/>
  <g transform="translate(9 80)"><path class="soft" d="M0 10 H58"/><rect class="black" x="10" y="10" width="3" height="7"/><rect class="black" x="18" y="10" width="3" height="7"/><rect class="black" x="31" y="10" width="3" height="7"/><path class="soft" d="M9 10 V22 M17 10 V22 M25 10 V22 M33 10 V22 M41 10 V22 M49 10 V22"/></g>
  <g transform="translate(39 42) rotate(-10)"><ellipse class="wash" cx="0" cy="2" rx="19" ry="10"/><path class="line" d="M0 0 C-12 -10 -20 -2 -12 8 C-4 18 6 10 0 0Z"/><path class="line" d="M0 0 C8 -13 20 -8 18 5 C16 18 5 12 0 0Z"/><path class="line" d="M0 0 C-3 -17 10 -22 18 -12 C26 0 10 4 0 0Z"/><path class="soft" d="M0 0 C-5 -6 -4 -12 2 -16"/><path class="soft" d="M0 0 C7 -6 11 -8 17 -8"/></g>
  <text x="8" y="96" class="num">No. 01</text><text x="53" y="96" class="txt">Prelude</text>
</svg>
