<svg xmlns="http://www.w3.org/2000/svg" width="76mm" height="106mm" viewBox="0 0 76 106">
  <defs><style>.paper{fill:#F8F5EF}.trim{fill:none;stroke:#9D9A95;stroke-width:.2;stroke-dasharray:1.2 1.2}.safe{fill:none;stroke:#E8E4DC;stroke-width:.25}.line{fill:none;stroke:#1E1E1E;stroke-width:.35;stroke-linecap:round;stroke-linejoin:round}.soft{fill:none;stroke:#9D9A95;stroke-width:.22;stroke-linecap:round}.wash{fill:#E8E4DC;opacity:.58}.black{fill:#1E1E1E}.txt{font-family:Georgia,'Times New Roman',serif;font-size:3px;fill:#1E1E1E}.num{font-family:Arial,sans-serif;font-size:2px;fill:#9D9A95}</style></defs>
  <rect class="paper" width="76" height="106"/><rect class="trim" x="3" y="3" width="70" height="100"/><rect class="safe" x="8" y="8" width="60" height="90"/>
  <g transform="translate(11 24) rotate(11)"><rect class="black" x="0" y="0" width="3" height="52" opacity=".9"/><rect class="black" x="9" y="0" width="3" height="52" opacity=".55"/><rect class="black" x="18" y="0" width="3" height="52" opacity=".8"/><rect class="black" x="27" y="0" width="3" height="52" opacity=".42"/></g>
  <path class="soft" d="M17 70 C30 40 46 42 59 20"/>
  <g transform="translate(47 36) rotate(16)"><ellipse class="wash" cx="0" cy="2" rx="18" ry="9"/><path class="line" d="M0 0 C-12 -9 -19 -1 -11 8 C-3 17 6 10 0 0Z"/><path class="line" d="M0 0 C8 -13 19 -7 17 5 C15 17 5 12 0 0Z"/><path class="line" d="M0 0 C-2 -16 11 -20 18 -10 C25 0 9 4 0 0Z"/></g>
  <g transform="translate(25 62) rotate(-20) scale(.72)"><ellipse class="wash" cx="0" cy="2" rx="18" ry="9"/><path class="line" d="M0 0 C-12 -9 -19 -1 -11 8 C-3 17 6 10 0 0Z"/><path class="line" d="M0 0 C8 -13 19 -7 17 5 C15 17 5 12 0 0Z"/></g>
  <text x="8" y="96" class="num">No. 04</text><text x="58" y="96" class="txt">Waltz</text>
</svg>
